<svg viewBox="0 0 1440 320" xmlns="http://www.w3.org/2000/svg" preserveAspectRatio="none"><defs><linearGradient id="waveGradient" x1="0%" y1="0%" x2="100%" y2="0%"><stop offset="0%" stop-color="#3b0764" /><stop offset="30%" stop-color="#6b21a8" /><stop offset="60%" stop-color="#9d174d" /><stop offset="80%" stop-color="#be185d" /><stop offset="100%" stop-color="#f9a8d4" /></linearGradient></defs><path fill="url(#waveGradient)" fill-opacity="1" d="M0,160L40,144C80,128,160,96,240,96C320,96,400,128,480,133.3C560,139,640,117,720,128C800,139,880,181,960,181.3C1040,181,1120,139,1200,117.3C1280,96,1360,96,1400,96L1440,96L1440,320L1400,320C1360,320,1280,320,1200,320C1120,320,1040,320,960,320C880,320,800,320,720,320C640,320,560,320,480,320C400,320,320,320,240,320C160,320,80,320,40,320L0,320Z"/></svg>